<svg width="21" height="21" viewBox="0 0 21 21" fill="none" xmlns="http://www.w3.org/2000/svg">
<path d="M5 2V0H7V2H13V0H15V2H19C19.5523 2 20 2.44772 20 3V8H18V4H15V6H13V4H7V6H5V4H2V18H8V20H1C0.44772 20 0 19.5523 0 19V3C0 2.44772 0.44772 2 1 2H5ZM15 11C12.7909 11 11 12.7909 11 15C11 17.2091 12.7909 19 15 19C17.2091 19 19 17.2091 19 15C19 12.7909 17.2091 11 15 11ZM9 15C9 11.6863 11.6863 9 15 9C18.3137 9 21 11.6863 21 15C21 18.3137 18.3137 21 15 21C11.6863 21 9 18.3137 9 15ZM14 12V15.4142L16.2929 17.7071L17.7071 16.2929L16 14.5858V12H14Z" fill="#F8FAF8"/>
</svg>
