<svg width="74" height="53" viewBox="0 0 74 53" fill="none" xmlns="http://www.w3.org/2000/svg">
<path d="M18.7949 51.6102V38.8984C18.7949 38.1315 19.4176 37.5088 20.1846 37.5088H21.4451C22.2121 37.5088 22.8347 38.1315 22.8347 38.8984V51.6102C22.8347 52.3771 22.2121 52.9998 21.4451 52.9998H20.1846C19.4176 52.9998 18.7949 52.3771 18.7949 51.6102Z" fill="#05A5FB"/>
<path d="M35.5236 41.2752V51.6026C35.5236 52.3695 34.9009 52.9922 34.134 52.9922H32.6532C31.8863 52.9922 31.2636 52.3695 31.2636 51.6026V41.2752H28.2793C27.5123 41.2752 26.8896 40.6526 26.8896 39.8856V38.8984C26.8896 38.1315 27.5123 37.5088 28.2793 37.5088H38.5079C39.2749 37.5088 39.8975 38.1315 39.8975 38.8984V39.8856C39.8975 40.6526 39.2749 41.2752 38.5079 41.2752H35.5236Z" fill="#05A5FB"/>
<path d="M52.5568 41.2752V51.6026C52.5568 52.3695 51.9341 52.9922 51.1672 52.9922H49.6864C48.9195 52.9922 48.2968 52.3695 48.2968 51.6026V41.2752H45.3125C44.5455 41.2752 43.9229 40.6526 43.9229 39.8856V38.8984C43.9229 38.1315 44.5455 37.5088 45.3125 37.5088H55.5411C56.3081 37.5088 56.9307 38.1315 56.9307 38.8984V39.8856C56.9307 40.6526 56.3081 41.2752 55.5411 41.2752H52.5568Z" fill="#05A5FB"/>
<path d="M68.055 37.5088H66.9312C63.6507 37.5088 60.9854 40.1742 60.9854 43.4546V47.054C60.9854 50.3344 63.6507 52.9998 66.9312 52.9998H68.055C71.3355 52.9998 74.0008 50.3344 74.0008 47.054V43.4546C74.0008 40.1742 71.3355 37.5088 68.055 37.5088ZM69.7332 47.054C69.7332 47.9804 68.9814 48.7398 68.0474 48.7398H66.9236C65.9971 48.7398 65.2378 47.9804 65.2378 47.054V43.4546C65.2378 42.5282 65.9896 41.7688 66.9236 41.7688H68.0474C68.9739 41.7688 69.7332 42.5282 69.7332 43.4546V47.054Z" fill="#05A5FB"/>
<path d="M50.9133 5.9172C54.178 9.18186 54.178 14.4869 50.9133 17.7516L39.3098 29.3551C38.0318 30.633 35.9646 30.6277 34.692 29.3551L25.1665 19.8296L39.0789 5.9172C42.3436 2.65254 47.6486 2.65254 50.9133 5.9172Z" fill="url(#paint0_linear_3811_25882)"/>
<path d="M23.0861 5.91825C26.3508 2.65359 31.6559 2.65359 34.9205 5.91825L48.8329 19.8306L39.3074 29.3562C38.0295 30.6341 35.9622 30.6287 34.6897 29.3562L23.0861 17.7526C19.8215 14.488 19.8215 9.18291 23.0861 5.91825Z" fill="url(#paint1_linear_3811_25882)"/>
<g style="mix-blend-mode:darken">
<path style="mix-blend-mode:multiply" opacity="0.51" d="M38.3544 6.64062L36.9951 7.99229L48.8336 19.8384L38.3544 6.64062Z" fill="url(#paint2_linear_3811_25882)"/>
</g>
<path d="M6.68303 45.5049C6.2426 44.3279 4.34419 38.6099 4.34419 38.6099C4.13157 37.9568 3.52408 37.5088 2.83306 37.5088H1.5877C0.494219 37.5088 -0.272737 38.5947 0.091757 39.6274C0.387909 40.4551 4.27585 50.7369 4.88334 52.0734C5.14152 52.6353 5.70345 52.9998 6.32613 52.9998H8.37641C8.64978 52.9998 8.91556 52.9239 9.15096 52.7948L6.69063 45.5277C6.69063 45.5277 6.68303 45.5125 6.67544 45.5049H6.68303Z" fill="#05A5FB"/>
<path d="M13.1452 37.5088H12.029C11.3531 37.5088 10.7456 37.9416 10.5254 38.5795C10.5254 38.5795 8.422 44.6696 8.11825 45.4973C7.87526 46.1579 6.95643 46.1655 6.69824 45.5201L9.15858 52.7872C9.44714 52.6277 9.68254 52.3847 9.82682 52.0734C10.4419 50.7369 14.3374 40.4855 14.6412 39.6274C15.0133 38.5947 14.2463 37.5088 13.1452 37.5088Z" fill="#B4282A"/>
<g style="mix-blend-mode:darken">
<path style="mix-blend-mode:multiply" opacity="0.51" d="M7.98774 45.7403C7.51694 46.2491 6.83351 45.9453 6.68164 45.5049L9.15717 52.7948C9.24069 52.7492 9.32422 52.6885 9.40016 52.6201L7.98774 45.7403Z" fill="url(#paint3_linear_3811_25882)"/>
</g>
<defs>
<linearGradient id="paint0_linear_3811_25882" x1="51.8439" y1="8.30245" x2="28.0379" y2="25.7982" gradientUnits="userSpaceOnUse">
<stop stop-color="#B4282A"/>
<stop offset="0.53" stop-color="#EE5C73"/>
<stop offset="1" stop-color="#F9A83A"/>
</linearGradient>
<linearGradient id="paint1_linear_3811_25882" x1="20.6425" y1="16.8919" x2="48.8376" y2="16.8919" gradientUnits="userSpaceOnUse">
<stop offset="0.53" stop-color="#3A93DD"/>
<stop offset="1" stop-color="#002D70"/>
</linearGradient>
<linearGradient id="paint2_linear_3811_25882" x1="45.6813" y1="10.2848" x2="39.4683" y2="18.5349" gradientUnits="userSpaceOnUse">
<stop stop-color="#221F1F" stop-opacity="0"/>
<stop offset="1"/>
</linearGradient>
<linearGradient id="paint3_linear_3811_25882" x1="10.6937" y1="45.5862" x2="3.44318" y2="55.206" gradientUnits="userSpaceOnUse">
<stop stop-color="#221F1F" stop-opacity="0"/>
<stop offset="1" stop-color="#05A5FB"/>
</linearGradient>
</defs>
</svg>
