<svg width="91" height="21" viewBox="0 0 91 21" fill="none" xmlns="http://www.w3.org/2000/svg">
<path d="M22.1073 3.88217C24.2449 6.01981 24.2449 9.49716 22.1073 11.6348L14.5024 19.2396C13.6651 20.077 12.3106 20.072 11.4782 19.2396L5.23768 12.9991L14.3546 3.88217C16.4923 1.74454 19.9696 1.74454 22.1073 3.88217Z" fill="url(#paint0_linear_4132_34220)"/>
<path d="M3.87631 3.87662C6.01395 1.73898 9.4913 1.73898 11.6289 3.87662L20.7459 12.9936L14.5054 19.2341C13.6681 20.0714 12.3136 20.0665 11.4812 19.2341L3.87631 11.6292C1.73868 9.49161 1.73868 6.01425 3.87631 3.87662Z" fill="url(#paint1_linear_4132_34220)"/>
<g style="mix-blend-mode:darken">
<path style="mix-blend-mode:multiply" opacity="0.51" d="M13.8768 4.34863L12.9922 5.24023L20.7449 12.9999L13.8768 4.34863Z" fill="url(#paint2_linear_4132_34220)"/>
</g>
<path d="M28.3304 18.2872V3.86146C28.3304 2.99076 29.034 2.28027 29.9116 2.28027H31.3396C32.2103 2.28027 32.9208 2.9838 32.9208 3.86146V18.2872C32.9208 19.1579 32.2173 19.8684 31.3396 19.8684H29.9116C29.0409 19.8684 28.3304 19.1649 28.3304 18.2872Z" fill="#05A5FB"/>
<path d="M47.3258 6.55729V18.2874C47.3258 19.1581 46.6222 19.8686 45.7446 19.8686H44.0659C43.1952 19.8686 42.4847 19.165 42.4847 18.2874V6.55729H39.0994C38.2287 6.55729 37.5182 5.85376 37.5182 4.97609V3.85463C37.5182 2.98393 38.2217 2.27344 39.0994 2.27344H50.711C51.5817 2.27344 52.2922 2.97696 52.2922 3.85463V4.97609C52.2922 5.84679 51.5887 6.55729 50.711 6.55729H47.3258Z" fill="#05A5FB"/>
<path d="M66.6622 6.55729V18.2874C66.6622 19.1581 65.9587 19.8686 65.081 19.8686H63.4023C62.5316 19.8686 61.8211 19.165 61.8211 18.2874V6.55729H58.4358C57.5651 6.55729 56.8546 5.85376 56.8546 4.97609V3.85463C56.8546 2.98393 57.5581 2.27344 58.4358 2.27344H70.0475C70.9182 2.27344 71.6287 2.97696 71.6287 3.85463V4.97609C71.6287 5.84679 70.9251 6.55729 70.0475 6.55729H66.6622Z" fill="#05A5FB"/>
<path d="M84.2505 2.28027H82.9757C79.2491 2.28027 76.2261 5.30335 76.2261 9.02994V13.1188C76.2261 16.8454 79.2491 19.8684 82.9757 19.8684H84.2505C87.9771 19.8684 91.0001 16.8454 91.0001 13.1188V9.02994C91.0001 5.30335 87.9771 2.28027 84.2505 2.28027ZM86.159 13.1118C86.159 14.1636 85.3023 15.0204 84.2505 15.0204H82.9688C81.917 15.0204 81.0602 14.1636 81.0602 13.1118V9.02298C81.0602 7.97117 81.917 7.1144 82.9688 7.1144H84.2505C85.3023 7.1144 86.159 7.97117 86.159 9.02298V13.1118Z" fill="#05A5FB"/>
<defs>
<linearGradient id="paint0_linear_4132_34220" x1="22.7207" y1="5.44625" x2="7.11771" y2="16.9116" gradientUnits="userSpaceOnUse">
<stop stop-color="#B4282A"/>
<stop offset="0.53" stop-color="#EE5C73"/>
</linearGradient>
<linearGradient id="paint1_linear_4132_34220" x1="2.26565" y1="11.0689" x2="20.7454" y2="11.0689" gradientUnits="userSpaceOnUse">
<stop offset="0.295" stop-color="#05A5FB"/>
<stop offset="1" stop-color="#002D70"/>
</linearGradient>
<linearGradient id="paint2_linear_4132_34220" x1="18.6929" y1="6.74152" x2="14.6221" y2="12.1499" gradientUnits="userSpaceOnUse">
<stop stop-color="#221F1F" stop-opacity="0"/>
<stop offset="1"/>
</linearGradient>
</defs>
</svg>
