<svg width="93" height="98" viewBox="0 0 93 98" fill="none" xmlns="http://www.w3.org/2000/svg">
<path d="M90.3665 85.6106C90.3665 89.7396 87.3925 93.2656 83.3195 93.9416C75.5266 95.2356 62.0236 97.0146 46.6716 97.0146C31.3196 97.0146 17.8176 95.2356 10.0236 93.9416C5.95056 93.2656 2.97656 89.7396 2.97656 85.6106V4.64258H90.3665V85.6106Z" fill="#F28585"/>
<path opacity="0.3" d="M2.97656 6.07617V17.4392C8.23556 19.3882 25.5036 20.8202 46.6686 20.8202C67.8576 20.8202 85.1376 19.3882 90.3726 17.4392V6.07617H2.97656Z" fill="black"/>
<path d="M92.014 14.7446C92.014 17.3096 72.173 19.3886 46.673 19.3886C21.172 19.3886 1.332 17.3096 1.332 14.7446L0.5 4.64258H92.846L92.014 14.7446Z" fill="#F28585"/>
<path d="M46.673 9.28799C72.1736 9.28799 92.846 7.20882 92.846 4.64401C92.846 2.0792 72.1736 0 46.673 0C21.1724 0 0.5 2.0792 0.5 4.64401C0.5 7.20882 21.1724 9.28799 46.673 9.28799Z" fill="#F28585"/>
<path opacity="0.3" d="M46.673 9.28799C72.1736 9.28799 92.846 7.20882 92.846 4.64401C92.846 2.0792 72.1736 0 46.673 0C21.1724 0 0.5 2.0792 0.5 4.64401C0.5 7.20882 21.1724 9.28799 46.673 9.28799Z" fill="black"/>
<path opacity="0.2" d="M14.6879 79.9103C12.8229 79.9103 11.2969 78.3843 11.2969 76.5193V30.0853C11.2969 28.2203 12.8229 26.6943 14.6879 26.6943C16.5529 26.6943 18.0789 28.2203 18.0789 30.0853V76.5193C18.0799 78.3843 16.5539 79.9103 14.6879 79.9103Z" fill="black"/>
<path opacity="0.2" d="M78.6566 79.9103C76.7916 79.9103 75.2656 78.3843 75.2656 76.5193V30.0853C75.2656 28.2203 76.7916 26.6943 78.6566 26.6943C80.5216 26.6943 82.0476 28.2203 82.0476 30.0853V76.5193C82.0476 78.3843 80.5216 79.9103 78.6566 79.9103Z" fill="black"/>
<path opacity="0.2" d="M57.3363 79.9103C55.4713 79.9103 53.9453 78.3843 53.9453 76.5193V30.0853C53.9453 28.2203 55.4713 26.6943 57.3363 26.6943C59.2013 26.6943 60.7273 28.2203 60.7273 30.0853V76.5193C60.7273 78.3843 59.2013 79.9103 57.3363 79.9103Z" fill="black"/>
<path opacity="0.2" d="M36.0121 79.9103C34.1471 79.9103 32.6211 78.3843 32.6211 76.5193V30.0853C32.6211 28.2203 34.1471 26.6943 36.0121 26.6943C37.8771 26.6943 39.4031 28.2203 39.4031 30.0853V76.5193C39.4031 78.3843 37.8771 79.9103 36.0121 79.9103Z" fill="black"/>
</svg>
